<?xml version="1.0" encoding="UTF-8"?><!DOCTYPE svg PUBLIC "-//W3C//DTD SVG 1.1//EN" "http://www.w3.org/Graphics/SVG/1.1/DTD/svg11.dtd"><svg xmlns="http://www.w3.org/2000/svg"><symbol id="arrow-down" viewBox="0 0 101 100">
    <!-- Generator: bin/sketchtool 1.2 (196) - http://www.bohemiancoding.com/sketch -->
    <title>arrow-down</title>
    <desc>Created with bin/sketchtool.</desc>
    
    <g id="Page-1" stroke="none" stroke-width="1" fill-rule="evenodd" sketch:type="MSPage">
        <g id="arrow-down" sketch:type="MSArtboardGroup">
            <path d="M50.5,76.71875 L5.5,32.1875 L14.5,23.28125 L50.5,58.90625 L86.5,23.28125 L95.5,32.1875 L50.5,76.71875 Z" id="Rectangle-9" sketch:type="MSShapeGroup"/>
        </g>
    </g>
</symbol><symbol id="arrow-left" viewBox="0 0 100 100">
    <!-- Generator: bin/sketchtool 1.2 (196) - http://www.bohemiancoding.com/sketch -->
    <title>arrow-left</title>
    <desc>Created with bin/sketchtool.</desc>
    
    <g id="Page-1" stroke="none" stroke-width="1" fill-rule="evenodd" sketch:type="MSPage">
        <g id="arrow-left" sketch:type="MSArtboardGroup">
            <path d="M67.8125,5 L76.71875,14 L41.09375,50 L76.71875,86 L67.8125,95 L23.28125,50 L67.8125,5 Z" id="Rectangle-9" sketch:type="MSShapeGroup"/>
        </g>
    </g>
</symbol><symbol id="arrow-right" viewBox="0 0 100 100">
    <!-- Generator: bin/sketchtool 1.2 (196) - http://www.bohemiancoding.com/sketch -->
    <title>arrow-right</title>
    <desc>Created with bin/sketchtool.</desc>
    
    <g id="Page-1" stroke="none" stroke-width="1" fill-rule="evenodd" sketch:type="MSPage">
        <g id="arrow-right" sketch:type="MSArtboardGroup">
            <path d="M76.71875,50 L32.1875,95 L23.28125,86 L58.90625,50 L23.28125,14 L32.1875,5 L76.71875,50 L76.71875,50 Z" id="Rectangle-9" sketch:type="MSShapeGroup"/>
        </g>
    </g>
</symbol><symbol id="arrow-up" viewBox="0 0 100 100">
    <!-- Generator: bin/sketchtool 1.2 (196) - http://www.bohemiancoding.com/sketch -->
    <title>arrow-up</title>
    <desc>Created with bin/sketchtool.</desc>
    
    <g id="Page-1" stroke="none" stroke-width="1" fill-rule="evenodd" sketch:type="MSPage">
        <g id="arrow-up" sketch:type="MSArtboardGroup">
            <path d="M95,67.8125 L86,76.71875 L50,41.09375 L14,76.71875 L5,67.8125 L50,23.28125 L95,67.8125 Z" id="Rectangle-9" sketch:type="MSShapeGroup"/>
        </g>
    </g>
</symbol><symbol id="favorite" viewBox="0 0 100 100">
    <!-- Generator: bin/sketchtool 1.2 (196) - http://www.bohemiancoding.com/sketch -->
    <title>favorite</title>
    <desc>Created with bin/sketchtool.</desc>
    
    <g id="Page-1" stroke="none" stroke-width="1" fill-rule="evenodd" sketch:type="MSPage">
        <g id="favorite" sketch:type="MSArtboardGroup">
            <polygon id="Star-2-Copy-2" sketch:type="MSShapeGroup" points="50 75.8948564 22.1884705 90.5 27.5 59.5658094 5 37.658094 36.0942353 33.1448564 50 5 63.9057647 33.1448564 95 37.658094 72.5 59.5658094 77.8115295 90.5 "/>
        </g>
    </g>
</symbol><symbol id="magnifier" viewBox="0 0 100 100">
    <!-- Generator: bin/sketchtool 1.2 (196) - http://www.bohemiancoding.com/sketch -->
    <title>magnifier</title>
    <desc>Created with bin/sketchtool.</desc>
    
    <g id="Page-1" stroke="none" stroke-width="1" fill-rule="evenodd" sketch:type="MSPage">
        <g id="magnifier" sketch:type="MSArtboardGroup">
            <path d="M66.2412375,75.2113534 L85.9086271,95 L95,85.8525753 L75.2398773,65.9706239 C79.5912924,59.6873514 82.1428571,52.0481058 82.1428571,43.8092362 C82.1428571,22.3754869 64.8738403,5 43.5714286,5 C22.2690168,5 5,22.3754869 5,43.8092362 C5,65.2429854 22.2690168,82.6184723 43.5714286,82.6184723 C52.043523,82.6184723 59.8776554,79.8701921 66.2412375,75.2113534 L66.2412375,75.2113534 Z M43.5714286,69.6820603 C57.7730364,69.6820603 69.2857143,58.0984023 69.2857143,43.8092362 C69.2857143,29.52007 57.7730364,17.9364121 43.5714286,17.9364121 C29.3698207,17.9364121 17.8571429,29.52007 17.8571429,43.8092362 C17.8571429,58.0984023 29.3698207,69.6820603 43.5714286,69.6820603 L43.5714286,69.6820603 L43.5714286,69.6820603 Z" id="Rectangle-11" sketch:type="MSShapeGroup"/>
        </g>
    </g>
</symbol><symbol id="tick" viewBox="0 0 100 100">
    <!-- Generator: bin/sketchtool 1.2 (196) - http://www.bohemiancoding.com/sketch -->
    <title>tick</title>
    <desc>Created with bin/sketchtool.</desc>
    
    <g id="Page-1" stroke="none" stroke-width="1" fill-rule="evenodd" sketch:type="MSPage">
        <g id="tick" sketch:type="MSArtboardGroup">
            <path d="M37.5921956,64.2151411 L85.6855782,17.796875 L95,26.7868708 L46.9066174,73.205137 L46.914898,73.2131292 L37.6004762,82.203125 L5,50.7381396 L14.3144218,41.7481438 L37.5921956,64.2151411 L37.5921956,64.2151411 Z" id="Rectangle-11-Copy-3" sketch:type="MSShapeGroup"/>
        </g>
    </g>
</symbol></svg>