<svg width="100" height="100" viewBox="0 0 100 100" xmlns="http://www.w3.org/2000/svg"><title>magnifier</title><path d="M66.24 75.21L85.91 95 95 85.853 75.24 65.97c4.35-6.283 6.903-13.922 6.903-22.16C82.143 22.374 64.873 5 43.57 5 22.27 5 5 22.375 5 43.81c0 21.433 17.27 38.808 38.57 38.808 8.474 0 16.308-2.748 22.67-7.407zm-22.67-5.528c14.203 0 25.716-11.584 25.716-25.873 0-14.29-11.513-25.874-25.715-25.874-14.2 0-25.713 11.584-25.713 25.873 0 14.288 11.513 25.872 25.714 25.872z" fill-rule="evenodd"/></svg>