<?xml version="1.0" encoding="UTF-8" standalone="no"?>
<svg width="100px" height="100px" viewBox="0 0 100 100" version="1.1" xmlns="http://www.w3.org/2000/svg" xmlns:xlink="http://www.w3.org/1999/xlink" xmlns:sketch="http://www.bohemiancoding.com/sketch/ns">
    <!-- Generator: bin/sketchtool 1.2 (196) - http://www.bohemiancoding.com/sketch -->
    <title>magnifying-glass</title>
    <desc>Created with bin/sketchtool.</desc>
    <defs></defs>
    <g id="Page-1" stroke="none" stroke-width="1" fill="none" fill-rule="evenodd" sketch:type="MSPage">
        <g id="magnifying-glass" sketch:type="MSArtboardGroup" fill="#000000">
            <path d="M66.2412375,75.2113534 L85.9086271,95 L95,85.8525753 L75.2398773,65.9706239 C79.5912924,59.6873514 82.1428571,52.0481058 82.1428571,43.8092362 C82.1428571,22.3754869 64.8738403,5 43.5714286,5 C22.2690168,5 5,22.3754869 5,43.8092362 C5,65.2429854 22.2690168,82.6184723 43.5714286,82.6184723 C52.043523,82.6184723 59.8776554,79.8701921 66.2412375,75.2113534 L66.2412375,75.2113534 Z M43.5714286,69.6820603 C57.7730364,69.6820603 69.2857143,58.0984023 69.2857143,43.8092362 C69.2857143,29.52007 57.7730364,17.9364121 43.5714286,17.9364121 C29.3698207,17.9364121 17.8571429,29.52007 17.8571429,43.8092362 C17.8571429,58.0984023 29.3698207,69.6820603 43.5714286,69.6820603 L43.5714286,69.6820603 L43.5714286,69.6820603 Z" id="Rectangle-11" sketch:type="MSShapeGroup"></path>
        </g>
    </g>
</svg>